<svg width="24" height="24" viewBox="0 0 24 24" fill="none" xmlns="http://www.w3.org/2000/svg">
<path d="M11.7567 7.8978C9.49008 7.89066 7.64825 9.72576 7.64111 11.9929C7.63397 14.26 9.46866 16.1022 11.7353 16.1093C14.0018 16.1165 15.8437 14.2814 15.8508 12.0143C15.858 9.74718 14.0233 7.90494 11.7567 7.8978ZM11.7353 9.34018C13.2059 9.33304 14.4016 10.5219 14.4088 11.9929C14.4159 13.4638 13.2273 14.6598 11.7567 14.667C10.2861 14.6741 9.0903 13.4852 9.08316 12.0143C9.07602 10.5433 10.2646 9.34732 11.7353 9.34018ZM15.0691 7.73C15.0691 7.20161 15.4974 6.77318 16.0257 6.77318C16.554 6.77318 16.9823 7.20161 16.9823 7.73C16.9823 8.2584 16.554 8.68682 16.0257 8.68682C15.4974 8.68682 15.0691 8.2584 15.0691 7.73ZM19.6987 8.7011C19.638 7.41939 19.3453 6.28406 18.4065 5.34866C17.4713 4.41325 16.3363 4.1205 15.0548 4.05623C13.7341 3.98126 9.77563 3.98126 8.45494 4.05623C7.17708 4.11693 6.042 4.40968 5.10324 5.34509C4.16448 6.28049 3.87535 7.41582 3.8111 8.69753C3.73614 10.0185 3.73614 13.9779 3.8111 15.2989C3.87178 16.5806 4.16448 17.7159 5.10324 18.6513C6.042 19.5867 7.17351 19.8795 8.45494 19.9438C9.77563 20.0187 13.7341 20.0187 15.0548 19.9438C16.3363 19.8831 17.4713 19.5903 18.4065 18.6513C19.3417 17.7159 19.6344 16.5806 19.6987 15.2989C19.7736 13.9779 19.7736 10.0221 19.6987 8.7011ZM17.9925 16.7163C17.7141 17.416 17.1751 17.9551 16.4719 18.2372C15.4189 18.6549 12.9203 18.5585 11.7567 18.5585C10.593 18.5585 8.09086 18.6513 7.04144 18.2372C6.34183 17.9587 5.80285 17.4196 5.52086 16.7163C5.10324 15.6631 5.19961 13.1639 5.19961 12C5.19961 10.8361 5.10681 8.33337 5.52086 7.28372C5.79928 6.58396 6.33826 6.04485 7.04144 5.7628C8.09443 5.34509 10.593 5.44148 11.7567 5.44148C12.9203 5.44148 15.4225 5.34866 16.4719 5.7628C17.1715 6.04128 17.7105 6.58039 17.9925 7.28372C18.4101 8.33694 18.3137 10.8361 18.3137 12C18.3137 13.1639 18.4101 15.6666 17.9925 16.7163Z" fill="white"/>
</svg>
