<svg width="24" height="24" viewBox="0 0 24 24" fill="none" xmlns="http://www.w3.org/2000/svg">
<path d="M18.7663 10.0604C17.3916 10.0635 16.0482 9.63533 14.9297 8.83521V14.4205C14.9297 15.455 14.6141 16.4645 14.0236 17.3147C13.4331 18.1648 12.599 18.8149 11.6304 19.1774C10.6619 19.54 9.60591 19.5994 8.60302 19.3431C7.60012 19.0868 6.70033 18.5336 6.01924 17.7553C5.33815 16.9771 4.91637 16.0051 4.80077 14.9768C4.68518 13.9485 4.89138 12.9108 5.38189 12.0013C5.8724 11.0918 6.6316 10.3542 7.55639 9.88537C8.48117 9.41655 9.52155 9.24465 10.5463 9.38529V12.1951C10.0777 12.0482 9.57467 12.0513 9.10915 12.2076C8.64363 12.3639 8.23748 12.6639 7.95317 13.0609C7.66886 13.4578 7.51577 13.9391 7.51889 14.433C7.52202 14.9268 7.68136 15.4019 7.97191 15.7988C8.26247 16.1957 8.67175 16.4895 9.14039 16.6395C9.60903 16.7896 10.112 16.7896 10.5776 16.6364C11.0431 16.4833 11.4524 16.1864 11.7398 15.7894C12.0272 15.3925 12.1834 14.9112 12.1834 14.4205V3.5H14.9328C14.9297 3.73129 14.9515 3.9657 14.9922 4.19386C15.089 4.70331 15.2858 5.19089 15.5764 5.62221C15.867 6.05352 16.2419 6.42233 16.6761 6.70362C17.2979 7.11306 18.0258 7.33185 18.7694 7.33185V10.0635L18.7663 10.0604Z" fill="white"/>
</svg>
