<svg width="24" height="24" viewBox="0 0 24 24" fill="none" xmlns="http://www.w3.org/2000/svg">
<path d="M17.3536 6.075C15.8571 4.575 13.8643 3.75 11.7464 3.75C7.375 3.75 3.81786 7.30714 3.81786 11.6786C3.81786 13.075 4.18214 14.4393 4.875 15.6429L3.75 19.75L7.95357 18.6464C9.11071 19.2786 10.4143 19.6107 11.7429 19.6107H11.7464C16.1143 19.6107 19.75 16.0536 19.75 11.6821C19.75 9.56429 18.85 7.575 17.3536 6.075ZM11.7464 18.275C10.5607 18.275 9.4 17.9571 8.38929 17.3571L8.15 17.2143L5.65714 17.8679L6.32143 15.4357L6.16429 15.1857C5.50357 14.1357 5.15714 12.925 5.15714 11.6786C5.15714 8.04643 8.11429 5.08929 11.75 5.08929C13.5107 5.08929 15.1643 5.775 16.4071 7.02143C17.65 8.26786 18.4143 9.92143 18.4107 11.6821C18.4107 15.3179 15.3786 18.275 11.7464 18.275ZM15.3607 13.3393C15.1643 13.2393 14.1893 12.7607 14.0071 12.6964C13.825 12.6286 13.6929 12.5964 13.5607 12.7964C13.4286 12.9964 13.05 13.4393 12.9321 13.575C12.8179 13.7071 12.7 13.725 12.5036 13.625C11.3393 13.0429 10.575 12.5857 9.80714 11.2679C9.60357 10.9179 10.0107 10.9429 10.3893 10.1857C10.4536 10.0536 10.4214 9.93929 10.3714 9.83929C10.3214 9.73929 9.925 8.76429 9.76071 8.36786C9.6 7.98214 9.43571 8.03571 9.31429 8.02857C9.2 8.02143 9.06786 8.02143 8.93571 8.02143C8.80357 8.02143 8.58929 8.07143 8.40714 8.26786C8.225 8.46786 7.71429 8.94643 7.71429 9.92143C7.71429 10.8964 8.425 11.8393 8.52143 11.9714C8.62143 12.1036 9.91786 14.1036 11.9071 14.9643C13.1643 15.5071 13.6571 15.5536 14.2857 15.4607C14.6679 15.4036 15.4571 14.9821 15.6214 14.5179C15.7857 14.0536 15.7857 13.6571 15.7357 13.575C15.6893 13.4857 15.5571 13.4357 15.3607 13.3393Z" fill="white"/>
</svg>
